<svg width="57" height="52" viewBox="0 0 57 52" fill="none" xmlns="http://www.w3.org/2000/svg">
<path d="M50.9317 4.14007H45.421V2.08444C45.421 1.48371 44.9215 0.996094 44.3063 0.996094C43.691 0.996094 43.1916 1.48371 43.1916 2.08444V4.14007H24.3679V2.08444C24.3679 1.48371 23.8685 0.996094 23.2532 0.996094C22.638 0.996094 22.1385 1.48371 22.1385 2.08444V4.14007H16.2562C12.9063 4.14385 10.1918 6.79378 10.1879 10.0645V28.2017C10.1879 28.8024 10.6874 29.2896 11.3026 29.2896C11.9179 29.2896 12.417 28.8024 12.417 28.2017V21.0678H54.771V45.1294C54.7683 47.1987 53.0511 48.8753 50.9317 48.8775H16.2562C14.1369 48.8753 12.4197 47.1987 12.417 45.1294V38.8418C12.417 38.2411 11.9179 37.7535 11.3026 37.7535C10.6874 37.7535 10.1879 38.2411 10.1879 38.8418V45.1294C10.1918 48.4001 12.9063 51.0504 16.2562 51.0542H50.9317C54.2816 51.0504 56.9961 48.4001 57 45.1294V10.0645C56.9961 6.79378 54.2816 4.14385 50.9317 4.14007ZM12.417 18.8912V10.0645C12.4197 7.99524 14.1369 6.31865 16.2562 6.31638H22.1385V9.27121C20.4601 9.80612 19.4291 11.4528 19.7065 13.1555C19.9839 14.8578 21.4876 16.1107 23.2532 16.1107C25.0189 16.1107 26.5226 14.8578 26.8 13.1555C27.0774 11.4528 26.0464 9.80612 24.3679 9.27121V6.31638H43.1916V9.27121C41.5131 9.80612 40.4821 11.4528 40.7595 13.1555C41.0369 14.8578 42.5406 16.1107 44.3063 16.1107C46.0719 16.1107 47.5756 14.8578 47.853 13.1555C48.1304 11.4528 47.0994 9.80612 45.421 9.27121V6.31638H50.9317C53.0511 6.31865 54.7683 7.99524 54.771 10.0645V18.8912H12.417ZM23.2532 11.2739C24.0057 11.2739 24.6155 11.8693 24.6155 12.604C24.6155 13.3382 24.0057 13.934 23.2532 13.934C22.5012 13.934 21.891 13.3382 21.891 12.604C21.8921 11.8697 22.5016 11.2746 23.2532 11.2739ZM44.3063 11.2739C45.0587 11.2739 45.6686 11.8693 45.6686 12.604C45.6686 13.3382 45.0587 13.934 44.3063 13.934C43.5542 13.934 42.944 13.3382 42.944 12.604C42.9452 11.8697 43.5546 11.2746 44.3063 11.2739Z" fill="#BEAD8E"/>
<path d="M7.94584 38.4356C8.38095 38.8608 8.38095 39.5493 7.94584 39.9745C7.51035 40.3997 6.80518 40.3997 6.36968 39.9745L0.548981 34.2915C0.113871 33.8666 0.113871 33.1778 0.548981 32.7529L6.36968 27.0699C6.80518 26.6447 7.51035 26.6447 7.94584 27.0699C8.38095 27.4951 8.38095 28.1836 7.94584 28.6088L4.02792 32.434H25.9814C26.5967 32.434 27.0961 32.9213 27.0961 33.522C27.0961 34.1231 26.5967 34.6104 25.9814 34.6104H4.02792L7.94584 38.4356Z" fill="#BEAD8E"/>
</svg>
