<svg width="68" height="67" viewBox="0 0 68 67" fill="none" xmlns="http://www.w3.org/2000/svg">
<g clip-path="url(#clip0_17_1439)">
<path d="M33.6599 12.2166C31.8251 12.2166 30.0592 12.7603 28.5531 13.789C28.1079 14.093 27.9954 14.6977 28.3017 15.1396C28.6082 15.5815 29.2175 15.6932 29.6627 15.3892C30.8409 14.5844 32.2231 14.159 33.6599 14.159C37.5535 14.159 40.7211 17.3028 40.7211 21.167C40.7211 25.0313 37.5535 28.1751 33.6599 28.1751C29.7663 28.1751 26.5987 25.0313 26.5987 21.167C26.5987 20.0271 26.8654 18.9404 27.3913 17.9373C27.6408 17.4614 27.4544 16.875 26.975 16.6275C26.4954 16.3801 25.9048 16.5648 25.6552 17.0407C24.9922 18.3056 24.6416 19.7324 24.6416 21.167C24.6417 26.1025 28.6872 30.1176 33.6599 30.1176C38.6326 30.1176 42.6781 26.1025 42.6781 21.167C42.6781 16.2317 38.6326 12.2166 33.6599 12.2166Z" fill="#BEAD8E"/>
<path d="M67.0847 64.8456L57.4268 41.8145C57.275 41.4524 56.9187 41.2165 56.5235 41.2165H46.8991C48.7711 38.7031 50.3292 36.1996 51.5461 33.7415C53.7027 29.3853 54.796 25.1547 54.796 21.1671C54.7959 9.60023 45.3143 0.189941 33.6598 0.189941C22.0054 0.189941 12.5238 9.60023 12.5238 21.167C12.5238 25.1546 13.6172 29.3853 15.7737 33.7414C16.9905 36.1995 18.5486 38.7031 20.4207 41.2164H10.7964C10.4012 41.2164 10.0447 41.4524 9.89303 41.8144L3.31185 57.5082C3.10418 58.0035 3.34025 58.572 3.83922 58.778C3.96223 58.8288 4.08942 58.8529 4.21478 58.8529C4.5982 58.8529 4.96212 58.6278 5.1185 58.2546L6.05755 56.0152H12.7191L9.267 64.2475H2.60561L3.60629 61.861C3.81396 61.3658 3.57789 60.7973 3.07892 60.5913C2.5797 60.3849 2.00706 60.6195 1.79951 61.1146L0.235088 64.8456C0.109332 65.1453 0.142832 65.4877 0.324465 65.7576C0.505836 66.0276 0.811262 66.1899 1.13841 66.1899H66.1813C66.5083 66.1899 66.8139 66.0276 66.9954 65.7576C67.1769 65.4877 67.2105 65.1453 67.0847 64.8456ZM14.481 21.167C14.481 10.6712 23.0846 2.1323 33.6598 2.1323C44.2351 2.1323 52.8387 10.6713 52.8387 21.167C52.8387 25.5682 51.2979 32.6014 44.1699 41.5639C44.1628 41.5723 44.1563 41.5812 44.1495 41.5899C43.7855 42.0471 43.4073 42.5092 43.0135 42.9765C39.0967 47.6251 35.1329 51.0196 33.6597 52.2257C32.1908 51.0237 28.2458 47.6463 24.3317 43.0065C23.9281 42.5282 23.541 42.0552 23.1685 41.5873C23.1624 41.5798 23.1568 41.5721 23.1505 41.5647C16.0229 32.6028 14.481 25.5699 14.481 21.167ZM11.449 43.1589H18.1106L15.6808 48.953H9.01929L11.449 43.1589ZM17.1712 64.2476L23.2877 49.6621L40.6938 64.2476H17.1712ZM43.7275 64.2476L23.5291 47.3222C23.2907 47.1223 22.9703 47.0474 22.6675 47.1203C22.3645 47.1932 22.1143 47.4052 21.9945 47.691L15.0515 64.2475H11.3869L15.0897 55.4171C15.2155 55.1174 15.182 54.7752 15.0003 54.5051C14.819 54.235 14.5134 54.0728 14.1863 54.0728H6.87241L8.20482 50.8952H16.3335C16.7287 50.8952 17.0852 50.6592 17.2369 50.2972L20.2304 43.1588H21.9287C22.2235 43.5236 22.5232 43.8885 22.8308 44.2533C27.88 50.2384 32.8518 54.081 33.061 54.2417C33.2374 54.3772 33.4486 54.4448 33.6598 54.4448C33.8711 54.4448 34.0824 54.3771 34.2587 54.2417C34.3737 54.1535 35.928 52.9515 38.1416 50.8953H49.2229C49.7634 50.8953 50.2015 50.4605 50.2015 49.9242C50.2015 49.3878 49.7634 48.953 49.2229 48.953H40.1585C41.5152 47.5991 42.9981 46.0205 44.489 44.2534C44.7966 43.8886 45.0964 43.5238 45.3911 43.1589H55.8707L58.3004 48.953H53.1371C52.5966 48.953 52.1585 49.3878 52.1585 49.9242C52.1585 50.4605 52.5965 50.8953 53.1371 50.8953H59.1149L60.4473 54.0729H40.2858C39.8774 54.0729 39.512 54.3245 39.369 54.7043C39.2262 55.084 39.3359 55.5119 39.6443 55.7775L49.4762 64.2476H43.7275ZM52.4618 64.2476L42.906 56.0154H61.262L64.7142 64.2476H52.4618Z" fill="#BEAD8E"/>
</g>
<defs>
<clipPath id="clip0_17_1439">
<rect width="67" height="66" fill="white" transform="translate(0.159912 0.189941)"/>
</clipPath>
</defs>
</svg>
