<svg width="61" height="21" viewBox="0 0 61 21" fill="none" xmlns="http://www.w3.org/2000/svg">
<path d="M0.481541 8.37998V0.353778H2.22283V3.53618H5.77553V0.353778H7.51682V8.37998H5.77553V5.01038H2.22283V8.37998H0.481541Z" fill="#111111"/>
<path d="M14.2004 8.52038C13.3512 8.52038 12.6188 8.36828 12.0033 8.06408C11.3878 7.75988 10.9165 7.29968 10.5893 6.68348C10.262 6.06728 10.0984 5.29508 10.0984 4.36688C10.0984 3.42308 10.262 2.64698 10.5893 2.03858C10.9165 1.42238 11.3878 0.966078 12.0033 0.669679C12.6188 0.365479 13.3512 0.213379 14.2004 0.213379C15.0652 0.213379 15.8014 0.365479 16.4091 0.669679C17.0246 0.966078 17.496 1.42238 17.8232 2.03858C18.1504 2.64698 18.314 3.42308 18.314 4.36688C18.314 5.29508 18.1504 6.06728 17.8232 6.68348C17.496 7.29968 17.0246 7.75988 16.4091 8.06408C15.8014 8.36828 15.0652 8.52038 14.2004 8.52038ZM14.2004 7.09298C14.5822 7.09298 14.9172 7.03838 15.2054 6.92918C15.4937 6.81998 15.7352 6.65618 15.93 6.43778C16.1248 6.21938 16.2728 5.95418 16.3741 5.64218C16.4754 5.32238 16.526 4.95968 16.526 4.55408V4.19138C16.526 3.77798 16.4754 3.41138 16.3741 3.09158C16.2728 2.77178 16.1248 2.50658 15.93 2.29598C15.7352 2.07758 15.4937 1.91378 15.2054 1.80458C14.9172 1.69538 14.5822 1.64078 14.2004 1.64078C13.8264 1.64078 13.4953 1.69538 13.207 1.80458C12.9188 1.91378 12.6773 2.07758 12.4825 2.29598C12.2877 2.50658 12.1397 2.77178 12.0384 3.09158C11.9449 3.41138 11.8982 3.77798 11.8982 4.19138V4.55408C11.8982 4.95968 11.9449 5.32238 12.0384 5.64218C12.1397 5.95418 12.2877 6.21938 12.4825 6.43778C12.6773 6.65618 12.9188 6.81998 13.207 6.92918C13.4953 7.03838 13.8264 7.09298 14.2004 7.09298Z" fill="#111111"/>
<path d="M22.5633 8.37998V1.81628H19.9922V0.353778H26.899V1.81628H24.3163V8.37998H22.5633Z" fill="#111111"/>
<path d="M29.2436 8.37998V0.353778H35.6478V1.78118H30.9966V3.57128H35.1102V4.98698H30.9966V6.94088H35.7179V8.37998H29.2436Z" fill="#111111"/>
<path d="M38.3896 8.37998V0.353778H40.1309V6.89408H44.1745V8.37998H38.3896Z" fill="#111111"/>
<path d="M0.598406 20.98V12.9538H2.31632L4.13942 18.1603C4.18616 18.3007 4.23291 18.4567 4.27965 18.6283C4.33419 18.7921 4.38094 18.9481 4.41989 19.0963C4.46664 19.2445 4.5017 19.3732 4.52507 19.4824H4.60688C4.63025 19.3654 4.66141 19.2328 4.70037 19.0846C4.73932 18.9286 4.78217 18.7687 4.82892 18.6049C4.87567 18.4411 4.91852 18.2929 4.95747 18.1603L6.78057 12.9538H8.4868V20.98H7.37658V16.2766C7.37658 16.0348 7.38047 15.7735 7.38826 15.4927C7.39606 15.2041 7.40385 14.9428 7.41164 14.7088C7.41943 14.467 7.42332 14.2954 7.42332 14.194H7.32983C7.30646 14.2954 7.2675 14.4397 7.21297 14.6269C7.15843 14.8063 7.1 14.9974 7.03767 15.2002C6.98313 15.3952 6.93249 15.5707 6.88574 15.7267L5.00422 20.98H4.04592L2.1644 15.7267C2.11765 15.5941 2.06701 15.442 2.01247 15.2704C1.96573 15.091 1.91508 14.9077 1.86055 14.7205C1.8138 14.5333 1.76706 14.3578 1.72031 14.194H1.6385C1.6463 14.3656 1.65019 14.5801 1.65019 14.8375C1.65798 15.0871 1.66188 15.3406 1.66188 15.598C1.66967 15.8476 1.67356 16.0738 1.67356 16.2766V20.98H0.598406Z" fill="#111111"/>
<path d="M11.6618 20.98V12.9538H12.772V20.98H11.6618Z" fill="#111111"/>
<path d="M15.9461 20.98V12.9538H20.1649C20.7103 12.9538 21.1621 13.0552 21.5205 13.258C21.8867 13.453 22.1594 13.7299 22.3386 14.0887C22.5178 14.4397 22.6074 14.8453 22.6074 15.3055C22.6074 15.8593 22.4827 16.3351 22.2334 16.7329C21.9841 17.1307 21.6413 17.4154 21.205 17.587L22.8879 20.98H21.6725L20.1065 17.7859H17.0563V20.98H15.9461ZM17.0563 16.8382H20.0597C20.5038 16.8382 20.8505 16.7017 21.0998 16.4287C21.3569 16.1557 21.4855 15.7813 21.4855 15.3055C21.4855 15.0091 21.4309 14.7595 21.3219 14.5567C21.2128 14.3539 21.0531 14.1979 20.8427 14.0887C20.6324 13.9717 20.3714 13.9132 20.0597 13.9132H17.0563V16.8382Z" fill="#111111"/>
<path d="M24.6825 20.98L27.8495 12.9538H29.3103L32.489 20.98H31.2853L30.5023 18.991H26.599L25.8277 20.98H24.6825ZM26.9613 18.0433H30.1284L29.1584 15.5278C29.135 15.4576 29.1 15.3601 29.0532 15.2353C29.0065 15.1105 28.9558 14.974 28.9013 14.8258C28.8467 14.6698 28.7922 14.5138 28.7377 14.3578C28.6831 14.194 28.6325 14.0458 28.5858 13.9132H28.5156C28.4611 14.0692 28.3988 14.2486 28.3286 14.4514C28.2585 14.6542 28.1884 14.8531 28.1183 15.0481C28.0482 15.2353 27.9897 15.3952 27.943 15.5278L26.9613 18.0433Z" fill="#111111"/>
<path d="M34.7403 20.98V12.9538H35.8155L39.7071 18.2422C39.7461 18.289 39.7967 18.3592 39.859 18.4528C39.9214 18.5464 39.9837 18.64 40.046 18.7336C40.1083 18.8194 40.159 18.8974 40.1979 18.9676H40.2447C40.2447 18.8428 40.2447 18.7219 40.2447 18.6049C40.2447 18.4801 40.2447 18.3592 40.2447 18.2422V12.9538H41.3315V20.98H40.3148L36.3765 15.598C36.3219 15.5122 36.2401 15.3913 36.131 15.2353C36.0298 15.0793 35.9441 14.9545 35.8739 14.8609H35.8155C35.8155 14.9857 35.8155 15.1105 35.8155 15.2353C35.8155 15.3523 35.8155 15.4732 35.8155 15.598V20.98H34.7403Z" fill="#111111"/>
<path d="M44.5141 20.98V12.9538H47.5058C48.3473 12.9538 49.064 13.0942 49.6562 13.375C50.2483 13.6558 50.7001 14.0926 51.0118 14.6854C51.3312 15.2704 51.4909 16.0309 51.4909 16.9669C51.4909 17.8873 51.3312 18.6439 51.0118 19.2367C50.7001 19.8295 50.2483 20.2702 49.6562 20.5588C49.064 20.8396 48.3473 20.98 47.5058 20.98H44.5141ZM45.6243 20.0206H47.4825C47.9265 20.0206 48.3239 19.966 48.6745 19.8568C49.0251 19.7398 49.325 19.5643 49.5743 19.3303C49.8237 19.0963 50.0106 18.796 50.1353 18.4294C50.2677 18.055 50.334 17.6104 50.334 17.0956V16.8616C50.334 16.3312 50.2677 15.8827 50.1353 15.5161C50.0106 15.1417 49.8237 14.8375 49.5743 14.6035C49.3328 14.3695 49.0368 14.1979 48.6862 14.0887C48.3356 13.9717 47.9343 13.9132 47.4825 13.9132H45.6243V20.0206Z" fill="#111111"/>
<path d="M53.1934 20.98L56.3605 12.9538H57.8213L61 20.98H59.7963L59.0133 18.991H55.11L54.3387 20.98H53.1934ZM55.4723 18.0433H58.6393L57.6694 15.5278C57.646 15.4576 57.6109 15.3601 57.5642 15.2353C57.5174 15.1105 57.4668 14.974 57.4122 14.8258C57.3577 14.6698 57.3032 14.5138 57.2486 14.3578C57.1941 14.194 57.1435 14.0458 57.0967 13.9132H57.0266C56.9721 14.0692 56.9097 14.2486 56.8396 14.4514C56.7695 14.6542 56.6994 14.8531 56.6293 15.0481C56.5591 15.2353 56.5007 15.3952 56.454 15.5278L55.4723 18.0433Z" fill="#111111"/>
</svg>
