<svg width="66" height="67" viewBox="0 0 66 67" fill="none" xmlns="http://www.w3.org/2000/svg">
<path d="M8.73472 38.32C8.55425 38.1407 8.30546 38.0376 8.05151 38.0376C7.79628 38.0376 7.54749 38.1407 7.36702 38.32C7.18784 38.5005 7.08472 38.7493 7.08472 39.0044C7.08472 39.2583 7.18784 39.5084 7.36702 39.6876C7.54749 39.8681 7.79628 39.9712 8.05151 39.9712C8.30546 39.9712 8.55425 39.8681 8.73472 39.6876C8.91519 39.5084 9.01831 39.2583 9.01831 39.0044C9.01831 38.7492 8.91519 38.5004 8.73472 38.32Z" fill="#BEAD8E"/>
<path d="M64.3887 35.5734H61.7728V33.7194C61.7728 32.8309 61.05 32.1081 60.1614 32.1081H59.4625V27.1979H63.2337C63.7082 27.1979 64.1363 26.9918 64.4084 26.6324C64.6804 26.273 64.7626 25.805 64.6337 25.3484L62.5044 17.8013C62.2915 17.0462 61.5391 16.4767 60.7544 16.4767H56.2369C55.4522 16.4767 54.7 17.0461 54.4869 17.8013L52.3577 25.3485C52.2289 25.8051 52.3111 26.2732 52.583 26.6326C52.855 26.992 53.2833 27.1981 53.7578 27.1981H57.5288V32.1082H56.83C55.9414 32.1082 55.2187 32.831 55.2187 33.7196V35.5735H52.9776V33.0267C52.9776 32.1381 52.2549 31.4154 51.3663 31.4154H25.2656C24.7317 31.4154 24.2988 31.8482 24.2988 32.3822C24.2988 32.9161 24.7317 33.349 25.2656 33.349H51.0442V40.5016H49.69V39.0898C49.69 37.4905 48.389 36.1894 46.7896 36.1894H36.7646C35.1652 36.1894 33.8642 37.4905 33.8642 39.0898V40.5016H32.5374V39.0898C32.5374 37.4905 31.2363 36.1894 29.637 36.1894H19.6119C18.0126 36.1894 16.7115 37.4905 16.7115 39.0898V40.5016H14.9558V33.349H20.8827C21.4166 33.349 21.8495 32.9161 21.8495 32.3822C21.8495 31.8482 21.4166 31.4154 20.8827 31.4154H14.6336C13.745 31.4154 13.0222 32.1381 13.0222 33.0267V35.5735H10.7812V33.7197C10.7812 32.8312 10.0584 32.1084 9.16988 32.1084H8.47107V27.1979H12.2421C12.7166 27.1979 13.1447 26.9918 13.4168 26.6324C13.6888 26.273 13.7711 25.805 13.6421 25.3484L11.513 17.8013C11.3001 17.0462 10.5476 16.4767 9.76297 16.4767H5.24545C4.4608 16.4767 3.7085 17.0461 3.49542 17.8013L1.36641 25.3484C1.23763 25.805 1.31974 26.273 1.59173 26.6324C1.86373 26.9918 2.29195 27.1979 2.76646 27.1979H6.53748V32.1082H5.83881C4.95026 32.1082 4.22748 32.831 4.22748 33.7196V35.5734H1.61133C0.722777 35.5734 0 36.2962 0 37.1847V41.6223V48.832C0 49.7206 0.722777 50.4434 1.61133 50.4434H8.16234V56.6864C8.16234 57.575 8.88512 58.2977 9.77367 58.2977H14.2022C15.0908 58.2977 15.8136 57.575 15.8136 56.6864V53.5749H39.832C40.366 53.5749 40.7988 53.142 40.7988 52.6081C40.7988 52.0741 40.366 51.6413 39.832 51.6413H15.4913C14.6028 51.6413 13.88 52.3641 13.88 53.2526V56.3641H10.0959V47.8254H55.9042V56.3641H52.1201V53.2526C52.1201 52.3641 51.3974 51.6413 50.5088 51.6413H44.4727C43.9387 51.6413 43.5059 52.0741 43.5059 52.6081C43.5059 53.142 43.9387 53.5749 44.4727 53.5749H50.1866V56.6864C50.1866 57.575 50.9093 58.2977 51.7979 58.2977H56.2265C57.1149 58.2977 57.8378 57.575 57.8378 56.6864V50.4434H64.3887C65.2772 50.4434 66 49.7206 66 48.832V37.1847C66 36.2963 65.2772 35.5734 64.3887 35.5734ZM54.3906 25.2644L56.3242 18.4102H60.6671L62.6009 25.2644H54.3906ZM57.1524 34.0418H59.8392V35.4964H57.1524V34.0418ZM35.7979 39.0898C35.7979 38.5567 36.2317 38.123 36.7647 38.123H46.7897C47.3229 38.123 47.7565 38.5567 47.7565 39.0898V40.5016H35.7979V39.0898ZM19.6119 38.123H29.637C30.17 38.123 30.6038 38.5567 30.6038 39.0898V40.5016H18.6451V39.0898C18.6451 38.5567 19.0789 38.123 19.6119 38.123ZM3.39913 25.2644L5.33272 18.4103H9.67557L11.6093 25.2644H3.39913ZM6.16094 34.0418H8.84761V35.4964H6.16094V34.0418ZM9.30574 43.4018V45.9615C8.64484 46.1625 8.16222 46.7773 8.16222 47.503V48.5098H1.93359V42.5891H9.42253C9.34699 42.8472 9.30574 43.1197 9.30574 43.4018ZM1.93359 40.6555V37.507H13.0222V40.5015H12.2061C11.8806 40.5015 11.5679 40.5561 11.2756 40.6555H1.93359ZM54.7607 45.8918H11.2393V43.402C11.2393 42.8689 11.6731 42.4352 12.2061 42.4352H53.7939C54.3269 42.4352 54.7607 42.8689 54.7607 43.402V45.8918ZM64.0664 48.5098H57.8378V47.503C57.8378 46.7773 57.3553 46.1625 56.6943 45.9615V43.4018C56.6943 43.1197 56.653 42.8472 56.5775 42.5891H64.0664V48.5098ZM64.0664 40.6555H54.7244C54.4321 40.5561 54.1194 40.5015 53.7939 40.5015H52.9779V37.507H64.0664V40.6555Z" fill="#BEAD8E"/>
<path d="M58.633 38.3212C58.4525 38.1407 58.2037 38.0376 57.9485 38.0376C57.6945 38.0376 57.4457 38.1407 57.2653 38.3212C57.0848 38.5004 56.9817 38.7492 56.9817 39.0044C56.9817 39.2583 57.0848 39.5071 57.2653 39.6876C57.4445 39.8681 57.6945 39.9712 57.9485 39.9712C58.2037 39.9712 58.4525 39.8681 58.633 39.6876C58.8122 39.5071 58.9153 39.2583 58.9153 39.0044C58.9153 38.7504 58.8122 38.5004 58.633 38.3212Z" fill="#BEAD8E"/>
<path d="M47.3225 13.334C47.8565 13.334 48.2893 12.9012 48.2893 12.3672V9.81372C48.2893 8.92517 47.5665 8.20239 46.678 8.20239H19.322C18.4335 8.20239 17.7107 8.92517 17.7107 9.81372V24.1491C17.7107 25.0377 18.4335 25.7604 19.322 25.7604H46.678C47.5665 25.7604 48.2893 25.0377 48.2893 24.1491V16.75C48.2893 16.2161 47.8565 15.7832 47.3225 15.7832C46.7886 15.7832 46.3557 16.2161 46.3557 16.75V19.4862L41.7851 11.5698C41.6124 11.2707 41.2932 11.0864 40.9479 11.0864C40.6024 11.0864 40.2833 11.2707 40.1106 11.5698L35.9967 18.6955L33.1275 13.7259C33.1261 13.7234 33.1243 13.7214 33.1229 13.7189C33.041 13.5796 32.9236 13.4585 32.7736 13.372C32.3111 13.105 31.72 13.2635 31.453 13.7259L25.6212 23.827H19.6443V10.136H46.3557V12.3672C46.3557 12.9012 46.7886 13.334 47.3225 13.334ZM40.9479 13.9868L46.3557 23.3534V23.827H35.2668L40.9479 13.9868ZM32.2902 16.1429L34.8804 20.6291L33.034 23.827H27.8538L32.2902 16.1429Z" fill="#BEAD8E"/>
<path d="M24.8377 11.2405C23.0308 11.2403 21.5608 12.7104 21.5608 14.5174C21.5608 16.3243 23.0308 17.7942 24.8377 17.7942C26.6446 17.7942 28.1145 16.3243 28.1145 14.5174C28.1145 12.7104 26.6446 11.2405 24.8377 11.2405ZM24.8377 15.8606C24.097 15.8606 23.4944 15.258 23.4944 14.5174C23.4944 13.7766 24.097 13.1741 24.8377 13.1741C25.5783 13.1739 26.1809 13.7766 26.1809 14.5174C26.1809 15.2581 25.5783 15.8606 24.8377 15.8606Z" fill="#BEAD8E"/>
</svg>
