<svg width="20" height="20" viewBox="0 0 20 20" fill="none" xmlns="http://www.w3.org/2000/svg">
<path d="M14.2479 9.52286C15.1564 8.51071 15.7143 7.17786 15.7143 5.71429C15.7143 2.56357 13.1507 0 10 0C6.84929 0 4.28571 2.56357 4.28571 5.71429C4.28571 8.865 6.84929 11.4286 10 11.4286C11.1107 11.4286 12.145 11.105 13.0236 10.5543C16.1307 11.725 18.27 14.5686 18.5421 17.8571H1.45857C1.64357 15.6436 2.68214 13.5793 4.37143 12.1064C4.66929 11.8471 4.7 11.3964 4.44071 11.0986C4.18214 10.8014 3.73071 10.77 3.43286 11.0293C1.25071 12.9307 0 15.6793 0 18.5714C0 18.9664 0.32 19.2857 0.714286 19.2857H19.2857C19.6807 19.2857 20 18.9664 20 18.5714C20 14.6529 17.7286 11.1536 14.2479 9.52286ZM5.71429 5.71429C5.71429 3.35071 7.63643 1.42857 10 1.42857C12.3636 1.42857 14.2857 3.35071 14.2857 5.71429C14.2857 8.07786 12.3636 10 10 10C7.63643 10 5.71429 8.07786 5.71429 5.71429Z" fill="#111111"/>
</svg>
