<svg width="20" height="20" viewBox="0 0 20 20" fill="none" xmlns="http://www.w3.org/2000/svg">
<path d="M18.8084 17.8179L14.3984 13.4078H14.3509C15.7102 11.8051 16.3971 9.73882 16.2679 7.64127C16.1388 5.54372 15.2035 3.57735 13.6579 2.15351C12.1122 0.729662 10.0759 -0.0413648 7.97477 0.00171254C5.87368 0.0447899 3.87064 0.898635 2.38464 2.38464C0.898635 3.87064 0.0447899 5.87368 0.00171254 7.97477C-0.0413648 10.0758 0.729662 12.1122 2.15351 13.6579C3.57735 15.2035 5.54372 16.1388 7.64127 16.2679C9.73882 16.3971 11.8051 15.7102 13.4078 14.3509C13.4078 14.3509 13.4078 14.3848 13.4078 14.3984L17.8179 18.8084C17.8809 18.872 17.956 18.9225 18.0386 18.9569C18.1213 18.9914 18.21 19.0091 18.2996 19.0091C18.3891 19.0091 18.4778 18.9914 18.5605 18.9569C18.6432 18.9225 18.7182 18.872 18.7813 18.8084C18.8508 18.7468 18.907 18.6716 18.9463 18.5874C18.9856 18.5033 19.0072 18.4119 19.0097 18.319C19.0123 18.2262 18.9957 18.1338 18.9611 18.0475C18.9265 17.9613 18.8745 17.8832 18.8084 17.8179V17.8179ZM8.14964 14.9072C6.80775 14.9072 5.496 14.5093 4.38026 13.7638C3.26452 13.0183 2.3949 11.9586 1.88139 10.7189C1.36787 9.47915 1.23351 8.11498 1.4953 6.79887C1.75709 5.48277 2.40327 4.27385 3.35213 3.32499C4.30099 2.37613 5.50991 1.72995 6.82601 1.46816C8.14212 1.20637 9.50629 1.34073 10.746 1.85425C11.9858 2.36777 13.0454 3.23738 13.7909 4.35312C14.5364 5.46886 14.9344 6.78061 14.9344 8.1225C14.9344 9.01348 14.7589 9.89574 14.4179 10.7189C14.0769 11.5421 13.5772 12.29 12.9472 12.92C12.3171 13.55 11.5692 14.0498 10.746 14.3908C9.92288 14.7317 9.04062 14.9072 8.14964 14.9072V14.9072Z" fill="#111111"/>
</svg>
