<svg width="144" height="106" viewBox="0 0 144 106" fill="none" xmlns="http://www.w3.org/2000/svg">
<path d="M137.563 77.7892L128.851 75.2973C128.475 75.1898 128.212 74.8412 128.212 74.4495V71.5385C128.921 71.0469 129.597 70.4967 130.229 69.8826C133.292 66.907 134.979 62.9159 134.979 58.644V54.627L135.821 52.9407C136.745 51.0894 137.234 49.0169 137.234 46.9474V36.065C137.234 34.8987 136.29 33.9533 135.125 33.9533H114.826C107.445 33.9533 101.44 39.9652 101.44 47.3545V47.4804C101.44 49.2013 101.846 50.9247 102.615 52.4637L103.695 54.6267V58.0758C103.695 63.5421 106.386 68.4466 110.461 71.398L110.462 74.449C110.462 74.9195 110.462 75.1143 108.72 75.6127L104.469 76.8285L92.1727 72.3522C92.2168 71.7713 92.0211 71.1806 91.5978 70.7355L87.6684 66.6027V59.665C88.0838 59.3223 88.4933 58.9704 88.8902 58.5981C93.8472 53.9467 96.6901 47.3796 96.6901 40.5807V35.0401C98.1869 31.7793 98.9454 28.3288 98.9454 24.7752V2.19668C98.9454 1.03045 98.001 0.0849609 96.8361 0.0849609H65.2604C54.1482 0.0849609 45.108 9.1355 45.108 20.2598V24.7757C45.108 28.3293 45.8665 31.7799 47.3633 35.0407V39.8078C47.3633 47.7017 50.8694 54.8134 56.385 59.502V66.603L52.4557 70.7357C52.0324 71.1809 51.8366 71.7716 51.8808 72.3525L38.9025 77.0768C37.962 77.4192 37.0882 77.8829 36.2948 78.4446L34.2568 77.4245C40.3234 74.7809 42.2452 71.0629 42.3374 70.8782C42.6344 70.2838 42.6344 69.5839 42.3374 68.9895C40.8167 65.9447 40.6325 60.3638 40.4845 55.8797C40.4353 54.3868 40.3886 52.9765 40.2995 51.7207C39.5803 41.5918 31.8887 33.9533 22.4077 33.9533C12.9268 33.9533 5.23491 41.5915 4.51603 51.7207C4.42687 52.9767 4.38019 54.3871 4.33097 55.8802C4.18303 60.3641 3.99853 65.9444 2.47809 68.9892C2.18109 69.5836 2.18109 70.2835 2.47809 70.8779C2.57034 71.0626 4.48819 74.7731 10.5668 77.4197L4.90613 80.2531C1.87987 81.769 0 84.8141 0 88.201V103.802C0 104.968 0.944437 105.914 2.10938 105.914C3.27431 105.914 4.21875 104.968 4.21875 103.802V88.201C4.21875 86.4238 5.20509 84.826 6.79275 84.0311L13.8417 80.5028L16.2937 82.8356C18.0082 84.4667 20.2075 85.2818 22.4077 85.2818C24.6074 85.2818 26.8079 84.4661 28.5218 82.8356L30.9735 80.5031L33.2719 81.6536C32.1896 83.3872 31.5754 85.4201 31.5754 87.5495V103.803C31.5754 104.969 32.5198 105.914 33.6847 105.914C34.8497 105.914 35.7941 104.969 35.7941 103.803V87.5495C35.7941 84.6506 37.6225 82.0371 40.3442 81.0463L54.0276 76.0651L59.7237 84.6193C60.4519 85.7129 61.6188 86.4143 62.9252 86.5438C63.0709 86.5581 63.2157 86.5652 63.3603 86.5652C64.5128 86.5652 65.6168 86.111 66.4419 85.2852L69.9171 81.8062V103.803C69.9171 104.969 70.8615 105.915 72.0264 105.915C73.1914 105.915 74.1358 104.969 74.1358 103.803V81.8062L77.6109 85.2852C78.4358 86.1113 79.5398 86.5655 80.6926 86.5655C80.8369 86.5655 80.982 86.5584 81.1274 86.5441C82.4341 86.4145 83.601 85.7132 84.3292 84.6196L90.0256 76.0657L103.709 81.0468C106.43 82.0377 108.259 84.6511 108.259 87.5501V103.803C108.259 104.97 109.203 105.915 110.368 105.915C111.533 105.915 112.478 104.97 112.478 103.803V87.5501C112.478 84.614 111.312 81.8603 109.358 79.8237L109.879 79.6748C110.404 79.5244 111.122 79.3186 111.842 78.9652L117.227 84.3569V103.803C117.227 104.97 118.172 105.915 119.337 105.915C120.502 105.915 121.446 104.97 121.446 103.803V84.3569L126.794 79.0027C127.079 79.1474 127.377 79.2696 127.692 79.3594L136.404 81.8512C138.392 82.42 139.781 84.2634 139.781 86.334V103.803C139.781 104.97 140.726 105.915 141.891 105.915C143.056 105.915 144 104.97 144 103.803V86.334C144 82.3871 141.353 78.8735 137.563 77.7892ZM13.5323 74.0593C9.58669 72.638 7.60753 70.7431 6.76266 69.7083C7.33866 68.2008 7.71216 66.4743 7.965 64.6517C9.12825 67.444 11.0765 69.8277 13.5323 71.5283V74.0593ZM25.6163 79.7745C23.8171 81.4858 20.9987 81.4855 19.2001 79.7742L17.2384 77.908C17.5694 77.2871 17.7514 76.5832 17.7514 75.8458V73.595C19.2229 74.0554 20.7872 74.3037 22.4083 74.3037C24.0275 74.3037 25.5909 74.0542 27.065 73.5964L27.0647 75.8455C27.0647 76.5832 27.2464 77.2874 27.5777 77.9085L25.6163 79.7745ZM22.4089 70.0803C16.11 70.0803 10.9859 64.9502 10.9859 58.6446C10.9859 57.4784 10.0415 56.5329 8.87653 56.5329C8.75841 56.5329 8.64309 56.545 8.53031 56.5639C8.5365 56.3822 8.54241 56.2004 8.54859 56.0204C8.59556 54.5684 8.64084 53.1969 8.72437 52.0206C8.99381 48.2262 10.5083 44.7298 12.989 42.1749C15.4918 39.5969 18.837 38.1773 22.4083 38.1773C25.9796 38.1773 29.3245 39.5969 31.8277 42.1749C34.3083 44.7298 35.8228 48.2262 36.0923 52.0206C36.1755 53.1966 36.2211 54.5679 36.2689 56.0196C36.2731 56.1443 36.2773 56.2707 36.2815 56.3963C33.9865 52.8565 30.4422 50.2478 25.8626 48.7747C21.6318 47.4139 17.993 47.4981 17.8394 47.5021C17.287 47.5175 16.7628 47.749 16.3794 48.1471L12.5736 52.0986C11.765 52.9382 11.7892 54.275 12.6278 55.0845C13.4665 55.894 14.8019 55.8695 15.6105 55.0302L18.7774 51.7424C21.5047 51.8758 30.2788 52.8973 33.6912 60.4198C32.8326 65.9632 28.0732 70.0803 22.4089 70.0803ZM31.2832 74.0663L31.2834 71.5478C33.7373 69.8564 35.6884 67.4772 36.8525 64.6638C37.1053 66.4822 37.4785 68.2048 38.0534 69.7089C37.2133 70.7338 35.2249 72.6456 31.2832 74.0663ZM51.5821 39.8075V34.5682C51.5821 34.2503 51.5104 33.9364 51.3723 33.65C50.015 30.8361 49.3268 27.8504 49.3268 24.7757V20.26C49.3268 11.4643 56.4747 4.30868 65.2604 4.30868H94.7267V24.776C94.7267 27.8507 94.0385 30.8364 92.6812 33.6503C92.5431 33.9366 92.4713 34.2506 92.4713 34.5685V40.5812C92.4713 46.3001 90.1749 51.6044 86.0051 55.5173C85.4845 56.0055 84.9443 56.4633 84.3857 56.8899C84.3733 56.8983 84.3615 56.9076 84.3494 56.9164C80.4431 59.8854 75.6585 61.3285 70.6618 61.0044C59.9628 60.3109 51.5821 51.0002 51.5821 39.8075ZM63.459 82.2984C63.4444 82.313 63.4103 82.3476 63.3414 82.3403C63.2728 82.3336 63.2458 82.2933 63.2343 82.2759L56.6741 72.4245L58.7852 70.2039L68.7372 77.014L63.459 82.2984ZM72.0267 74.1491L60.6037 66.3324V62.3905C63.5594 63.9901 66.8689 64.9904 70.3887 65.2185C70.9447 65.2546 71.4974 65.2723 72.0484 65.2723C76.0818 65.2723 79.9636 64.3071 83.4497 62.475V66.3324L72.0267 74.1491ZM80.8192 82.2764C80.8076 82.2939 80.7806 82.3341 80.712 82.3409C80.6431 82.3496 80.6093 82.3133 80.5944 82.2989L75.3162 77.0149L85.2682 70.2044L87.3796 72.4251L80.8192 82.2764ZM119.337 80.4947L114.55 75.7028C114.633 75.323 114.681 74.9071 114.68 74.4484L114.68 73.5573C116.008 73.9937 117.408 74.2527 118.857 74.2961C119.02 74.3012 119.181 74.3034 119.343 74.3034C120.944 74.3034 122.506 74.0613 123.994 73.5992V74.4495C123.994 74.8708 124.046 75.2835 124.146 75.6803L119.337 80.4947ZM127.291 66.8519C125.056 69.0238 122.102 70.1709 118.984 70.0746C112.88 69.8913 107.914 64.5087 107.914 58.0764V54.1286C107.914 53.8006 107.837 53.4774 107.691 53.1843L106.388 50.5753C105.911 49.6194 105.658 48.5495 105.658 47.4806V47.3548C105.658 42.294 109.771 38.177 114.826 38.177H133.015V46.9476C133.015 48.365 132.681 49.7844 132.047 51.0523L130.983 53.1843C130.836 53.4776 130.76 53.8006 130.76 54.1286V58.6443C130.76 61.764 129.528 64.6788 127.291 66.8519Z" fill="#F8F8F8"/>
</svg>
